# xmcd
#
# Track frame offsets:
#	150
#	3480
#	18722
#	35592
#	50645
#	60622
#	85992
#	101082
#	119190
#	136847
#	156745
#	173317
#	189102
#	203347
#	222450
#	234742
#	248137
# Disc length: 3508 seconds
# Revision: 1
# Processed by: cddbd v1.5.1PL0 Copyright (c) Steve Scherf et al.
#
# Submitted via: libkcddb 0.10
#
DISCID=ef0db211
DTITLE=The Jailers - Julia
DYEAR=1900
DGENRE=Unknown
TTITLE0=Intro
TTITLE1=Hey little girl
TTITLE2=Julia
TTITLE3=You move me
TTITLE4=Hey-ba-ba-re-bop
TTITLE5=Now I know
TTITLE6=Makin' history
TTITLE7=No place to stay
TTITLE8=I need your love tonight
TTITLE9=Send my love
TTITLE10=Crying in the night
TTITLE11=Send me somebody
TTITLE12=Singing in the rain
TTITLE13=I don't know
TTITLE14=it ain't true
TTITLE15=I'm gonna sit right down (and crying over you)
TTITLE16=A kinf of fear
EXTD=
EXTT0=
EXTT1=
EXTT2=
EXTT3=
EXTT4=
EXTT5=
EXTT6=
EXTT7=
EXTT8=
EXTT9=
EXTT10=
EXTT11=
EXTT12=
EXTT13=
EXTT14=
EXTT15=
EXTT16=
PLAYORDER=
